#!OML:ASF E:/inclinewalkrobotboard/Project1/Captureday1/Session1/subject1.ASF
:FULLY-SPECIFIED
:DEGREES
301
root 0 0 0 1.9081303736003912 -10.829985567819957 1.0312049159788124
lowerback -0.08212958067052822 -1.7211568262008026 -2.6612748807495237
upperback -0.5253995994481241 -2.267558726150253 2.048526882145948
thorax -0.28663976644014877 -1.1202144106853211 3.555067132532992
lowerneck -26.840257319857738 -1.7906786074638852 -7.602921891749677
upperneck 24.406457952861746 0.2018011093427583 2.3360619416419937
head 12.64813047780836 -0.4957891593545365 2.288442940284166
rclavicle 1.9098910117294144E-15 -2.363230592801203E-15
rhumerus -34.06531918020875 -2.480648769716523 -77.67305953956046
rradius 28.2776698866039
rwrist 20.370325712489407
rhand -17.8044867393431 9.058864106635841
rfingers 7.125019999999937
rthumb 8.45503019966804 -20.73847009895775
lclavicle 7.514930541084347E-16 2.2138333646297534E-17
lhumerus -20.22718493987941 -9.858290359951951 90.76577808710564
lradius 67.24267124419038
lwrist 3.811138122057215
lhand -28.43161467765751 22.985949468845646
lfingers 7.125020000000013
lthumb -1.8333422139250288 53.05914082300304
rfemur -34.22731467379307 6.507992899529611 22.33838036746184
rtibia 14.965834185811124
rfoot -4.384260859445096 -10.372570452436612
rtoes 2.0568126653745504
lfemur 12.103901507938238 -2.4830532812877806 -21.211880330234056
ltibia 39.85201960773458
lfoot 4.483419815806451 -15.737703898132292
ltoes -17.620206764735734
302
root 0 0 0 1.8239847841284953 -10.794063831503083 0.9134328451363171
lowerback 0.03922250456058074 -1.6604406573953598 -2.5426177218482553
upperback -0.5667720016486592 -2.1848817125045286 2.086500145951958
thorax -0.4048606919932658 -1.078000656985591 3.5275526349633344
lowerneck -26.05104187193563 -1.6275866414508173 -7.4676619219665
upperneck 25.69914106560323 0.441894143528908 1.9746523234501985
head 13.005457008081613 -0.4812716251156831 2.20131226741859
rclavicle 1.2397201332140528E-15 -2.7203091793628828E-15
rhumerus -34.05740578669321 -2.962048123163351 -77.77602377257999
rradius 28.284949989485067
rwrist 20.42793857281836
rhand -17.67758137651926 9.048183144954319
rfingers 7.125019999999935
rthumb 8.577153614149342 -20.737525840203574
lclavicle 5.497085305763687E-16 -4.1009466834781955E-16
lhumerus -20.813441298451956 -8.31197083210595 90.91439715168418
lradius 66.56186934433299
lwrist 3.3582037832176668
lhand -28.336765356984827 22.328001090877336
lfingers 7.125020000000016
lthumb -1.7418310785630835 52.39174546533382
rfemur -24.392564580706235 7.373037653476246 30.692517765771015
rtibia 16.549333882683307
rfoot -2.483507401395821 -7.681085907501378
rtoes 9.17082168839912
lfemur 0.12275242422686128 -1.3288488121934285 -17.801548587372523
ltibia 47.44065861482186
lfoot 10.56517184032269 -14.945076115063681
ltoes -10.218138606142876
303
root 0 0 0 1.7391642667038993 -10.802474682617799 0.807669113137991
lowerback 0.08875748549973839 -1.6121932406957367 -2.4602992326769124
upperback -0.6114560937600462 -2.118511940295733 2.040296535999762
thorax -0.485055066141588 -1.0431447619915397 3.4335721119107308
lowerneck -25.241178490738946 -1.5227367704101509 -7.3977433040502225
upperneck 27.328459760110714 0.5942100828079874 1.6407981510715728
head 13.469783902309503 -0.5050073672950398 2.1227425995901457
rclavicle 4.3158436736605315E-16 -2.5365516576515897E-15
rhumerus -33.985224768659485 -3.714194120128483 -78.09515598391182
rradius 28.44746581849357
rwrist 20.476470013364455
rhand -17.513609703338933 8.998087973321056
rfingers 7.125019999999933
rthumb 8.734705932311012 -20.778308952614857
lclavicle 5.308082474726683E-16 -1.0093835998233452E-15
lhumerus -21.519573086460646 -6.500946184703999 91.32122642561697
lradius 65.77591585340281
lwrist 2.6114823019941302
lhand -28.476803011595077 21.59699001722884
lfingers 7.125020000000023
lthumb -1.8650638151365246 51.63318998986101
rfemur -16.44137785955084 7.087148901548033 35.37649718962749
rtibia 24.74659291570763
rfoot -7.332965453217547 -6.35945625150217
rtoes 13.72480000579506
lfemur -5.103306069184809 -0.4251046852840157 -16.389121763099315
ltibia 51.52836821769485
lfoot 10.728227336975266 -13.565413975644063
ltoes -8.25103072084708
304
root 0 0 0 1.702267181265832 -10.794732489833319 0.7626433444177575
lowerback 0.09995567177367581 -1.5856407812107216 -2.4441660500064812
upperback -0.634907092057371 -2.0827357268285165 1.9970329994957232
thorax -0.5185005421159955 -1.023867142566293 3.3810874999519
lowerneck -24.823808022812855 -1.4935143088655232 -7.398208705665621
upperneck 28.107657949516344 0.6223735291499615 1.5393748617945524
head 13.676794883421927 -0.5264075335185179 2.102691721619663
rclavicle -1.7254505386916266E-15 -1.3991761066750719E-15
rhumerus -33.82205376755323 -4.367795142277737 -78.59496029513718
rradius 28.78673153494325
rwrist 20.49667104197529
rhand -17.385497864230683 8.89063846789329
rfingers 7.125019999999935
rthumb 8.858445075264902 -20.890002408202914
lclavicle -1.0842450946999241E-15 -9.76716104242971E-16
lhumerus -21.910182429121548 -5.774060450944129 91.7077020757462
lradius 65.31438051046034
lwrist 2.1398971258571584
lhand -28.69898568971556 21.10634960822526
lfingers 7.125020000000026
lthumb -2.071279236099733 51.11952429406064
rfemur -10.384129596138308 7.334587595261007 37.19791694742716
rtibia 27.334610695302178
rfoot -12.48272899495278 -6.187368993507748
rtoes 14.858362177177934
lfemur -11.197826273272591 0.8665913118138469 -14.79921202525536
ltibia 54.22008022105433
lfoot 6.5003235478320995 -10.49323488724566
ltoes -9.182175293747463
